<svg width="202" height="54" viewBox="0 0 202 54" fill="none" xmlns="http://www.w3.org/2000/svg">
<path d="M68.9829 36.6197C68.9829 38.6113 68.4752 40.1539 67.4581 41.2596C66.4419 42.3644 65.0381 42.9232 63.2348 42.9232C62.0482 42.9232 61.0082 42.6804 60.124 42.1949C59.2406 41.7085 58.5873 40.9921 58.1392 40.0449C57.704 39.0977 57.474 37.9554 57.474 36.6317V18.2554H48.7479V36.8259C48.7479 39.6071 49.3655 42.0612 50.5998 44.1864C51.8341 46.3117 53.553 47.9515 55.755 49.1296C57.9578 50.2957 60.4511 50.8911 63.2229 50.8911C65.9939 50.8911 68.4752 50.3076 70.6533 49.1296C72.8314 47.9634 74.5385 46.3117 75.7727 44.1864C77.007 42.0612 77.6246 39.6071 77.6246 36.8259V18.2554H68.971V36.6317L68.9829 36.6197Z" fill="#40C8E9"></path>
<path d="M90.8397 18.2433H82.054V50.2709H90.8397V18.2433Z" fill="#40C8E9"></path>
<path d="M86.4706 4.33556C85.0549 4.33556 83.893 4.82196 82.9731 5.79303C82.0539 6.76496 81.5812 7.94301 81.5812 9.30336C81.5812 10.6637 82.0412 11.9031 82.9731 12.8503C83.893 13.7976 85.0668 14.2712 86.4706 14.2712C87.8744 14.2712 89.0968 13.7976 90.0048 12.8503C90.9128 11.9031 91.36 10.7123 91.36 9.30336C91.36 7.89446 90.9128 6.76496 90.0048 5.79303C89.0968 4.82196 87.923 4.33556 86.4706 4.33556Z" fill="#40C8E9"></path>
<path d="M120.176 19.336C118.348 18.1699 116.243 17.5745 113.87 17.5745C111.499 17.5745 109.271 18.1094 107.36 19.1657C106.319 19.7364 105.411 20.4409 104.613 21.2552V18.2432H95.9591V50.2716H104.613V31.8944C104.613 30.6559 104.89 29.5383 105.436 28.5425C105.992 27.5467 106.742 26.7809 107.711 26.2588C108.678 25.7247 109.78 25.4572 111.014 25.4572C112.866 25.4572 114.391 26.0527 115.577 27.2426C116.763 28.4335 117.356 29.988 117.356 31.8825V50.2588H126.082V29.9029C126.082 27.7776 125.55 25.7852 124.497 23.9027C123.444 22.0201 121.992 20.5022 120.164 19.3241L120.176 19.336Z" fill="#40C8E9"></path>
<path d="M153.869 19.5671C151.485 18.1948 148.798 17.5142 145.808 17.5142C142.638 17.5142 139.77 18.2434 137.216 19.7008C134.662 21.1583 132.641 23.1498 131.165 25.6644C129.688 28.1781 128.95 31.0326 128.95 34.215C128.95 37.3965 129.7 40.3115 131.201 42.8379C132.701 45.3525 134.759 47.3441 137.386 48.8015C140.012 50.259 142.989 50.9881 146.341 50.9881C148.943 50.9881 151.339 50.5265 153.542 49.5912C155.745 48.6678 157.657 47.2717 159.291 45.413L154.135 40.239C153.167 41.3924 152.017 42.2306 150.698 42.7655C149.379 43.2996 147.902 43.5671 146.268 43.5671C144.465 43.5671 142.88 43.1906 141.513 42.4376C140.145 41.6846 139.104 40.5908 138.378 39.1581C138.087 38.5874 137.881 37.9681 137.7 37.3241L161.009 37.2636C161.19 36.5592 161.299 35.9033 161.336 35.3079C161.384 34.7124 161.409 34.1298 161.409 33.5463C161.409 30.4491 160.742 27.6926 159.424 25.2513C158.104 22.8219 156.252 20.9147 153.869 19.5424V19.5671ZM141.246 25.931C142.529 25.178 144.018 24.8015 145.736 24.8015C147.37 24.8015 148.738 25.1295 149.838 25.7973C150.94 26.466 151.799 27.4371 152.417 28.7122C152.707 29.3324 152.937 30.024 153.106 30.777L137.7 30.8256C137.857 30.231 138.051 29.6603 138.305 29.1501C138.983 27.7531 139.963 26.684 141.246 25.931Z" fill="#40C8E9"></path>
<path d="M188.324 18.2432V21.291C187.441 20.3685 186.412 19.5788 185.214 18.9715C183.41 18.0481 181.377 17.5745 179.138 17.5745C176.185 17.5745 173.559 18.3037 171.236 19.7611C168.924 21.2186 167.109 23.2101 165.79 25.7247C164.47 28.2384 163.805 31.0929 163.805 34.2753C163.805 37.4577 164.47 40.2388 165.79 42.7653C167.109 45.2791 168.924 47.2715 171.236 48.7289C173.547 50.1864 176.161 50.9147 179.066 50.9147C181.353 50.9147 183.41 50.453 185.25 49.5177C186.436 48.9112 187.453 48.1454 188.324 47.2348V50.2588H197.05V18.2432H188.324ZM186.605 40.4578C185.105 42.0967 183.145 42.911 180.724 42.911C179.187 42.911 177.795 42.5345 176.561 41.7815C175.327 41.0285 174.37 40.008 173.68 38.7328C173.003 37.4449 172.652 35.9516 172.652 34.2267C172.652 32.5018 172.991 31.069 173.68 29.7811C174.358 28.494 175.314 27.4854 176.524 26.7324C177.735 25.9794 179.138 25.6029 180.724 25.6029C182.309 25.6029 183.761 25.9675 184.948 26.6966C186.134 27.4249 187.089 28.4573 187.792 29.7811C188.494 31.1048 188.845 32.6116 188.845 34.2872C188.845 36.7651 188.094 38.818 186.594 40.4578H186.605Z" fill="#40C8E9"></path>
<path d="M23.4668 42.498C20.8406 42.4614 18.4683 41.8174 16.3626 40.555C14.1836 39.2551 12.4536 37.4212 11.1708 35.0889C9.88791 32.7447 9.25842 30.0001 9.25842 26.8663C9.25842 23.7324 9.89984 21.1216 11.1708 18.7774C12.4536 16.4332 14.2203 14.6111 16.4955 13.3121C18.7588 12.0122 21.373 11.3563 24.3254 11.3563C26.9277 11.3563 29.3 11.8666 31.4662 12.8871C33.3657 13.7857 34.9638 15.0609 36.2824 16.6759L41.4018 9.47383C39.55 7.67649 37.4085 6.21902 34.9391 5.12528C31.7447 3.70445 28.2344 3 24.3987 3C20.9616 3 17.7664 3.59542 14.8131 4.78541C11.8599 5.9754 9.28227 7.66371 7.07947 9.86225C4.87752 12.0489 3.14662 14.5992 1.88763 17.4903C0.629497 20.3805 0 23.5144 0 26.8782C0 30.2429 0.617565 33.3767 1.85185 36.2916C3.08614 39.2066 4.79234 41.7688 6.97129 43.9802C9.14939 46.1906 11.6912 47.9147 14.5712 49.1541C17.355 50.3441 20.3201 50.9514 23.454 51V42.5099L23.4668 42.498Z" fill="#40C8E9"></path>
<path d="M43.1446 25.3236L34.7695 33.7285V34.1178V46.7486L43.1446 40.7492V33.7285V25.3236Z" fill="url(#paint0_linear_1_336)"></path>
<path d="M43.1446 25.3236H34.7695H27.7625L21.7844 33.7285H34.7695L43.1446 25.3236Z" fill="#3E43F6"></path>
<defs>
<linearGradient id="paint0_linear_1_336" x1="41.7289" y1="41.9639" x2="36.2994" y2="30.4524" gradientUnits="userSpaceOnUse">
<stop stop-color="#65CEE8"></stop>
<stop offset="1" stop-color="#3E43F6"></stop>
</linearGradient>
</defs>
</svg>